<svg width="57" height="55" viewBox="0 0 57 55" fill="none" xmlns="http://www.w3.org/2000/svg">
<g id="&#208;&#184;&#208;&#186;&#208;&#190;&#208;&#189;&#208;&#186;&#208;&#176; 2">
<path d="M0 27.5C0 12.3122 12.3122 0 27.5 0H28.5C44.2401 0 57 12.7599 57 28.5V55H27.5C12.3122 55 0 42.6878 0 27.5Z" fill="#FFD300"/>
<g id="Users / add account">
<path id="Vector" d="M40.25 25.125H39V23.875C39 23.5435 38.8683 23.2255 38.6339 22.9911C38.3995 22.7567 38.0815 22.625 37.75 22.625C37.4185 22.625 37.1005 22.7567 36.8661 22.9911C36.6317 23.2255 36.5 23.5435 36.5 23.875V25.125H35.25C34.9185 25.125 34.6005 25.2567 34.3661 25.4911C34.1317 25.7255 34 26.0435 34 26.375C34 26.7065 34.1317 27.0245 34.3661 27.2589C34.6005 27.4933 34.9185 27.625 35.25 27.625H36.5V28.875C36.5 29.2065 36.6317 29.5245 36.8661 29.7589C37.1005 29.9933 37.4185 30.125 37.75 30.125C38.0815 30.125 38.3995 29.9933 38.6339 29.7589C38.8683 29.5245 39 29.2065 39 28.875V27.625H40.25C40.5815 27.625 40.8995 27.4933 41.1339 27.2589C41.3683 27.0245 41.5 26.7065 41.5 26.375C41.5 26.0435 41.3683 25.7255 41.1339 25.4911C40.8995 25.2567 40.5815 25.125 40.25 25.125ZM30.625 27.275C31.292 26.6977 31.8269 25.9836 32.1936 25.1813C32.5602 24.379 32.75 23.5071 32.75 22.625C32.75 20.9674 32.0915 19.3777 30.9194 18.2056C29.7473 17.0335 28.1576 16.375 26.5 16.375C24.8424 16.375 23.2527 17.0335 22.0806 18.2056C20.9085 19.3777 20.25 20.9674 20.25 22.625C20.25 23.5071 20.4398 24.379 20.8064 25.1813C21.1731 25.9836 21.708 26.6977 22.375 27.275C20.6252 28.0674 19.1406 29.3469 18.0987 30.9607C17.0569 32.5744 16.5018 34.4541 16.5 36.375C16.5 36.7065 16.6317 37.0245 16.8661 37.2589C17.1005 37.4933 17.4185 37.625 17.75 37.625C18.0815 37.625 18.3995 37.4933 18.6339 37.2589C18.8683 37.0245 19 36.7065 19 36.375C19 34.3859 19.7902 32.4782 21.1967 31.0717C22.6032 29.6652 24.5109 28.875 26.5 28.875C28.4891 28.875 30.3968 29.6652 31.8033 31.0717C33.2098 32.4782 34 34.3859 34 36.375C34 36.7065 34.1317 37.0245 34.3661 37.2589C34.6005 37.4933 34.9185 37.625 35.25 37.625C35.5815 37.625 35.8995 37.4933 36.1339 37.2589C36.3683 37.0245 36.5 36.7065 36.5 36.375C36.4982 34.4541 35.9431 32.5744 34.9013 30.9607C33.8594 29.3469 32.3748 28.0674 30.625 27.275ZM26.5 26.375C25.7583 26.375 25.0333 26.1551 24.4166 25.743C23.7999 25.331 23.3193 24.7453 23.0355 24.0601C22.7516 23.3748 22.6774 22.6208 22.8221 21.8934C22.9668 21.166 23.3239 20.4978 23.8483 19.9733C24.3728 19.4489 25.041 19.0918 25.7684 18.9471C26.4958 18.8024 27.2498 18.8766 27.9351 19.1605C28.6203 19.4443 29.206 19.9249 29.618 20.5416C30.0301 21.1583 30.25 21.8833 30.25 22.625C30.25 23.6196 29.8549 24.5734 29.1517 25.2767C28.4484 25.9799 27.4946 26.375 26.5 26.375Z" fill="black"/>
</g>
</g>
</svg>
