<svg width="57" height="55" viewBox="0 0 57 55" fill="none" xmlns="http://www.w3.org/2000/svg">
<g id="&#208;&#184;&#208;&#186;&#208;&#190;&#208;&#189;&#208;&#186;&#208;&#176; 1">
<path d="M0 27.5C0 12.3122 12.3122 0 27.5 0H28.5C44.2401 0 57 12.7599 57 28.5V55H27.5C12.3122 55 0 42.6878 0 27.5V27.5Z" fill="#FFD300"/>
<g id="Icon">
<path id="Body / Dark  / Left" d="M27.8867 30.1133L13.5352 36.0752V32.9922L23.5791 28.8887L13.5352 24.7852V21.7021L27.8867 27.6641V30.1133ZM44.2793 30.5859C44.2793 31.4167 44.1217 32.1901 43.8066 32.9062C43.4987 33.6152 43.0475 34.224 42.4531 34.7324C41.7943 35.2767 41.0352 35.6813 40.1758 35.9463C39.3236 36.2041 38.3496 36.333 37.2539 36.333C35.972 36.3258 34.887 36.222 33.999 36.0215C33.1182 35.8281 32.3984 35.6097 31.8398 35.3662V31.832H32.291C32.9427 32.2188 33.6445 32.541 34.3965 32.7988C35.1484 33.0566 35.8968 33.1855 36.6416 33.1855C37.0928 33.1855 37.5798 33.1354 38.1025 33.0352C38.6325 32.9277 39.0514 32.738 39.3594 32.4658C39.6029 32.2438 39.7855 32.0182 39.9072 31.7891C40.0361 31.5599 40.1006 31.2054 40.1006 30.7256C40.1006 30.3532 40.0146 30.0345 39.8428 29.7695C39.6781 29.4974 39.4632 29.279 39.1982 29.1143C38.8115 28.8779 38.346 28.724 37.8018 28.6523C37.2575 28.5736 36.7633 28.5342 36.3193 28.5342C35.6748 28.5342 35.0553 28.5915 34.4609 28.7061C33.8737 28.8135 33.3581 28.9209 32.9141 29.0283H32.4414V20.0049H43.8174V23.0664H36.3193V25.6768C36.5413 25.6624 36.8206 25.6517 37.1572 25.6445C37.501 25.6302 37.8018 25.623 38.0596 25.623C38.9404 25.623 39.7246 25.709 40.4121 25.8809C41.1068 26.0456 41.7048 26.2783 42.2061 26.5791C42.8577 26.973 43.3662 27.4958 43.7314 28.1475C44.0967 28.792 44.2793 29.6048 44.2793 30.5859Z" fill="black"/>
</g>
</g>
</svg>
