<svg width="57" height="55" viewBox="0 0 57 55" fill="none" xmlns="http://www.w3.org/2000/svg">
<g id="&#208;&#184;&#208;&#186;&#208;&#190;&#208;&#189;&#208;&#186;&#208;&#176; 3">
<path d="M0 27.5C0 12.3122 12.3122 0 27.5 0H28.5C44.2401 0 57 12.7599 57 28.5V55H27.5C12.3122 55 0 42.6878 0 27.5Z" fill="#FFD300"/>
<g id="User Interface / House">
<path id="Vector" d="M39 21.9999L31.5 15.4249C30.8125 14.8099 29.9224 14.47 29 14.47C28.0776 14.47 27.1875 14.8099 26.5 15.4249L19 21.9999C18.603 22.355 18.2861 22.7906 18.0706 23.2777C17.8551 23.7648 17.7458 24.2922 17.75 24.8249V35.7499C17.75 36.7444 18.1451 37.6983 18.8483 38.4015C19.5516 39.1048 20.5054 39.4999 21.5 39.4999H36.5C37.4946 39.4999 38.4484 39.1048 39.1516 38.4015C39.8549 37.6983 40.25 36.7444 40.25 35.7499V24.8124C40.2525 24.2818 40.1423 23.7568 39.9268 23.272C39.7114 22.7872 39.3955 22.3536 39 21.9999ZM31.5 36.9999H26.5V30.7499C26.5 30.4184 26.6317 30.1004 26.8661 29.866C27.1005 29.6316 27.4185 29.4999 27.75 29.4999H30.25C30.5815 29.4999 30.8995 29.6316 31.1339 29.866C31.3683 30.1004 31.5 30.4184 31.5 30.7499V36.9999ZM37.75 35.7499C37.75 36.0814 37.6183 36.3993 37.3839 36.6338C37.1495 36.8682 36.8315 36.9999 36.5 36.9999H34V30.7499C34 29.7553 33.6049 28.8015 32.9016 28.0982C32.1984 27.395 31.2446 26.9999 30.25 26.9999H27.75C26.7554 26.9999 25.8016 27.395 25.0983 28.0982C24.3951 28.8015 24 29.7553 24 30.7499V36.9999H21.5C21.1685 36.9999 20.8505 36.8682 20.6161 36.6338C20.3817 36.3993 20.25 36.0814 20.25 35.7499V24.8124C20.2502 24.6349 20.2882 24.4595 20.3615 24.2979C20.4348 24.1362 20.5417 23.992 20.675 23.8749L28.175 17.3124C28.4031 17.112 28.6964 17.0015 29 17.0015C29.3036 17.0015 29.5969 17.112 29.825 17.3124L37.325 23.8749C37.4583 23.992 37.5652 24.1362 37.6385 24.2979C37.7118 24.4595 37.7498 24.6349 37.75 24.8124V35.7499Z" fill="black"/>
</g>
</g>
</svg>
