<svg width="40" height="40" viewBox="0 0 40 40" fill="none" xmlns="http://www.w3.org/2000/svg">
<g id="Icon">
<path id="Oval" fill-rule="evenodd" clip-rule="evenodd" d="M20 40C31.0457 40 40 31.0457 40 20C40 8.95431 31.0457 0 20 0C8.95431 0 0 8.95431 0 20C0 31.0457 8.95431 40 20 40Z" fill="#FFD300"/>
<g id="check">
<path id="Vector" fill-rule="evenodd" clip-rule="evenodd" d="M28.7414 14.4734C28.9758 14.7078 29.1074 15.0257 29.1074 15.3572C29.1074 15.6886 28.9758 16.0065 28.7414 16.2409L18.7414 26.2409C18.507 26.4752 18.1891 26.6069 17.8577 26.6069C17.5262 26.6069 17.2083 26.4752 16.9739 26.2409L11.9739 21.2409C11.7462 21.0052 11.6202 20.6894 11.6231 20.3617C11.6259 20.0339 11.7574 19.7204 11.9892 19.4886C12.2209 19.2569 12.5344 19.1254 12.8622 19.1226C13.1899 19.1197 13.5057 19.2457 13.7414 19.4734L17.8577 23.5897L26.9739 14.4734C27.2083 14.2391 27.5262 14.1074 27.8577 14.1074C28.1891 14.1074 28.507 14.2391 28.7414 14.4734Z" fill="black"/>
</g>
</g>
</svg>
