<svg width="40" height="40" viewBox="0 0 40 40" fill="none" xmlns="http://www.w3.org/2000/svg">
<g id="Frame 182">
<path d="M0 20C0 8.95431 8.95431 0 20 0C31.0457 0 40 8.95431 40 20V40H20C8.95431 40 0 31.0457 0 20Z" fill="#FFD300"/>
<g id="Medical / medical file">
<path id="Vector" d="M28.25 25.25C27.9958 25.25 27.7521 25.351 27.5724 25.5307C27.3926 25.7104 27.2917 25.9542 27.2917 26.2083C27.2917 26.4625 27.1907 26.7063 27.011 26.886C26.8313 27.0657 26.5875 27.1667 26.3333 27.1667H16.75C16.4958 27.1667 16.2521 27.0657 16.0724 26.886C15.8926 26.7063 15.7917 26.4625 15.7917 26.2083V12.7917C15.7917 12.5375 15.8926 12.2938 16.0724 12.114C16.2521 11.9343 16.4958 11.8333 16.75 11.8333H21.5417V14.7083C21.5417 15.4708 21.8446 16.2021 22.3837 16.7413C22.9229 17.2804 23.6542 17.5833 24.4167 17.5833H27.2917V18.5417C27.2917 18.7958 27.3926 19.0396 27.5724 19.2193C27.7521 19.399 27.9958 19.5 28.25 19.5C28.5042 19.5 28.7479 19.399 28.9276 19.2193C29.1074 19.0396 29.2083 18.7958 29.2083 18.5417V16.625C29.2083 16.625 29.2083 16.625 29.2083 16.5675C29.1984 16.4795 29.1791 16.3927 29.1508 16.3088C29.1549 16.2801 29.1549 16.2511 29.1508 16.2225C29.1048 16.124 29.0433 16.0334 28.9688 15.9542L23.2188 10.2042C23.1395 10.1296 23.049 10.0682 22.9504 10.0221H22.8546C22.7642 9.97363 22.6674 9.93814 22.5671 9.91667H16.75C15.9875 9.91667 15.2562 10.2196 14.7171 10.7587C14.1779 11.2979 13.875 12.0292 13.875 12.7917V26.2083C13.875 26.9708 14.1779 27.7021 14.7171 28.2413C15.2562 28.7804 15.9875 29.0833 16.75 29.0833H26.3333C27.0958 29.0833 27.8271 28.7804 28.3663 28.2413C28.9054 27.7021 29.2083 26.9708 29.2083 26.2083C29.2083 25.9542 29.1074 25.7104 28.9276 25.5307C28.7479 25.351 28.5042 25.25 28.25 25.25ZM23.4583 13.1846L25.9404 15.6667H24.4167C24.1625 15.6667 23.9187 15.5657 23.739 15.386C23.5593 15.2063 23.4583 14.9625 23.4583 14.7083V13.1846ZM30.1667 21.4167H27.7708C27.6447 21.4159 27.5197 21.4401 27.4029 21.4878C27.2862 21.5355 27.18 21.6058 27.0904 21.6946L25.9021 22.8925L23.2188 19.8258C23.1324 19.7269 23.0267 19.6468 22.9082 19.5905C22.7896 19.5341 22.6608 19.5027 22.5296 19.4983C22.3984 19.4938 22.2677 19.5163 22.1455 19.5644C22.0234 19.6125 21.9125 19.6852 21.8196 19.7779L20.1904 21.4167H18.6667C18.4125 21.4167 18.1687 21.5176 17.989 21.6974C17.8093 21.8771 17.7083 22.1208 17.7083 22.375C17.7083 22.6292 17.8093 22.8729 17.989 23.0526C18.1687 23.2324 18.4125 23.3333 18.6667 23.3333H20.5833C20.7095 23.3341 20.8345 23.3099 20.9512 23.2622C21.068 23.2145 21.1742 23.1442 21.2638 23.0554L22.5 21.8575L25.1833 24.9242C25.2699 25.0228 25.3758 25.1027 25.4945 25.1587C25.6132 25.2148 25.7421 25.2458 25.8733 25.25C25.9995 25.2507 26.1245 25.2266 26.2412 25.1789C26.358 25.1312 26.4642 25.0609 26.5537 24.9721L28.1637 23.3333H30.1667C30.4208 23.3333 30.6646 23.2324 30.8443 23.0526C31.024 22.8729 31.125 22.6292 31.125 22.375C31.125 22.1208 31.024 21.8771 30.8443 21.6974C30.6646 21.5176 30.4208 21.4167 30.1667 21.4167Z" fill="black"/>
</g>
</g>
</svg>
