<svg width="40" height="40" viewBox="0 0 40 40" fill="none" xmlns="http://www.w3.org/2000/svg">
<g id="Frame 183">
<path d="M0 20C0 8.95431 8.95431 0 20 0C31.0457 0 40 8.95431 40 20V40H20C8.95431 40 0 31.0457 0 20Z" fill="#FFD300"/>
<g id="Users / users">
<path id="Vector" d="M20.303 19.9153C20.842 19.4266 21.2743 18.8221 21.5705 18.1429C21.8668 17.4637 22.0202 16.7256 22.0202 15.9788C22.0202 14.5756 21.4881 13.2298 20.5409 12.2375C19.5938 11.2453 18.3091 10.6878 16.9697 10.6878C15.6302 10.6878 14.3456 11.2453 13.3984 12.2375C12.4513 13.2298 11.9192 14.5756 11.9192 15.9788C11.9192 16.7256 12.0725 17.4637 12.3688 18.1429C12.6651 18.8221 13.0974 19.4266 13.6363 19.9153C12.2223 20.5861 11.0227 21.6693 10.1808 23.0355C9.33885 24.4017 8.89034 25.9929 8.88885 27.6191C8.88885 27.8997 8.99528 28.1689 9.18471 28.3673C9.37414 28.5658 9.63106 28.6773 9.89896 28.6773C10.1669 28.6773 10.4238 28.5658 10.6132 28.3673C10.8026 28.1689 10.9091 27.8997 10.9091 27.6191C10.9091 25.9351 11.5476 24.3202 12.6842 23.1295C13.8208 21.9388 15.3623 21.2698 16.9697 21.2698C18.577 21.2698 20.1186 21.9388 21.2552 23.1295C22.3917 24.3202 23.0303 25.9351 23.0303 27.6191C23.0303 27.8997 23.1367 28.1689 23.3261 28.3673C23.5156 28.5658 23.7725 28.6773 24.0404 28.6773C24.3083 28.6773 24.5652 28.5658 24.7546 28.3673C24.9441 28.1689 25.0505 27.8997 25.0505 27.6191C25.049 25.9929 24.6005 24.4017 23.7586 23.0355C22.9167 21.6693 21.717 20.5861 20.303 19.9153ZM16.9697 19.1534C16.3703 19.1534 15.7844 18.9673 15.2861 18.6184C14.7878 18.2696 14.3994 17.7738 14.17 17.1937C13.9407 16.6136 13.8807 15.9753 13.9976 15.3595C14.1145 14.7437 14.4031 14.178 14.8269 13.7341C15.2507 13.2901 15.7907 12.9877 16.3785 12.8652C16.9663 12.7427 17.5756 12.8056 18.1293 13.0459C18.683 13.2862 19.1563 13.6931 19.4893 14.2151C19.8222 14.7372 20 15.351 20 15.9788C20 16.8208 19.6807 17.6283 19.1124 18.2236C18.5441 18.819 17.7734 19.1534 16.9697 19.1534ZM26.8081 19.4921C27.4545 18.7295 27.8767 17.7874 28.024 16.7792C28.1713 15.771 28.0373 14.7398 27.6381 13.8095C27.239 12.8793 26.5917 12.0897 25.7742 11.5359C24.9567 10.9821 24.0038 10.6876 23.0303 10.6878C22.7624 10.6878 22.5055 10.7993 22.316 10.9978C22.1266 11.1962 22.0202 11.4654 22.0202 11.746C22.0202 12.0267 22.1266 12.2958 22.316 12.4943C22.5055 12.6927 22.7624 12.8042 23.0303 12.8042C23.834 12.8042 24.6047 13.1387 25.173 13.7341C25.7413 14.3294 26.0606 15.1369 26.0606 15.9788C26.0591 16.5346 25.9184 17.0803 25.6526 17.5613C25.3867 18.0423 25.0049 18.4417 24.5454 18.7196C24.3957 18.8101 24.2706 18.9393 24.1822 19.095C24.0937 19.2506 24.0449 19.4274 24.0404 19.6085C24.0361 19.7881 24.0757 19.9659 24.1552 20.1251C24.2347 20.2844 24.3516 20.4197 24.4949 20.5185L24.8889 20.7937L25.0202 20.8677C26.2377 21.4727 27.2649 22.4296 27.9808 23.6257C28.6966 24.8218 29.0712 26.2073 29.0606 27.6191C29.0606 27.8997 29.167 28.1689 29.3564 28.3673C29.5459 28.5658 29.8028 28.6773 30.0707 28.6773C30.3386 28.6773 30.5955 28.5658 30.7849 28.3673C30.9744 28.1689 31.0808 27.8997 31.0808 27.6191C31.089 25.9952 30.7008 24.396 29.953 22.9736C29.2051 21.5512 28.1225 20.3527 26.8081 19.4921Z" fill="black"/>
</g>
</g>
</svg>
