<svg width="40" height="41" viewBox="0 0 40 41" fill="none" xmlns="http://www.w3.org/2000/svg">
<g id="Frame 183">
<path d="M0 20.5C0 9.45431 8.95431 0.5 20 0.5C31.0457 0.5 40 9.45431 40 20.5V40.5H20C8.95431 40.5 0 31.5457 0 20.5Z" fill="#FFD300"/>
<g id="Medical / health">
<path id="Vector" d="M27.0707 9.60053H12.9293C12.1256 9.60053 11.3548 9.935 10.7865 10.5304C10.2183 11.1257 9.89899 11.9332 9.89899 12.7751V27.59C9.89899 28.4319 10.2183 29.2394 10.7865 29.8347C11.3548 30.4301 12.1256 30.7646 12.9293 30.7646H27.0707C27.8744 30.7646 28.6452 30.4301 29.2135 29.8347C29.7817 29.2394 30.101 28.4319 30.101 27.59V12.7751C30.101 11.9332 29.7817 11.1257 29.2135 10.5304C28.6452 9.935 27.8744 9.60053 27.0707 9.60053ZM28.0808 27.59C28.0808 27.8706 27.9744 28.1398 27.785 28.3382C27.5955 28.5367 27.3386 28.6482 27.0707 28.6482H12.9293C12.6614 28.6482 12.4045 28.5367 12.215 28.3382C12.0256 28.1398 11.9192 27.8706 11.9192 27.59V12.7751C11.9192 12.4945 12.0256 12.2253 12.215 12.0269C12.4045 11.8284 12.6614 11.7169 12.9293 11.7169H27.0707C27.3386 11.7169 27.5955 11.8284 27.785 12.0269C27.9744 12.2253 28.0808 12.4945 28.0808 12.7751V27.59ZM25.0505 17.0079H23.0303V14.8915C23.0303 14.6109 22.9239 14.3417 22.7344 14.1433C22.545 13.9448 22.2881 13.8333 22.0202 13.8333H17.9798C17.7119 13.8333 17.455 13.9448 17.2655 14.1433C17.0761 14.3417 16.9697 14.6109 16.9697 14.8915V17.0079H14.9495C14.6816 17.0079 14.4247 17.1194 14.2352 17.3179C14.0458 17.5163 13.9394 17.7855 13.9394 18.0661V22.2989C13.9394 22.5796 14.0458 22.8488 14.2352 23.0472C14.4247 23.2457 14.6816 23.3571 14.9495 23.3571H16.9697V25.4735C16.9697 25.7542 17.0761 26.0234 17.2655 26.2218C17.455 26.4203 17.7119 26.5317 17.9798 26.5317H22.0202C22.2881 26.5317 22.545 26.4203 22.7344 26.2218C22.9239 26.0234 23.0303 25.7542 23.0303 25.4735V23.3571H25.0505C25.3184 23.3571 25.5753 23.2457 25.7648 23.0472C25.9542 22.8488 26.0606 22.5796 26.0606 22.2989V18.0661C26.0606 17.7855 25.9542 17.5163 25.7648 17.3179C25.5753 17.1194 25.3184 17.0079 25.0505 17.0079ZM24.0404 21.2407H22.0202C21.7523 21.2407 21.4954 21.3522 21.306 21.5507C21.1165 21.7491 21.0101 22.0183 21.0101 22.2989V24.4153H18.9899V22.2989C18.9899 22.0183 18.8835 21.7491 18.694 21.5507C18.5046 21.3522 18.2477 21.2407 17.9798 21.2407H15.9596V19.1243H17.9798C18.2477 19.1243 18.5046 19.0129 18.694 18.8144C18.8835 18.616 18.9899 18.3468 18.9899 18.0661V15.9497H21.0101V18.0661C21.0101 18.3468 21.1165 18.616 21.306 18.8144C21.4954 19.0129 21.7523 19.1243 22.0202 19.1243H24.0404V21.2407Z" fill="black"/>
</g>
</g>
</svg>
