<svg width="40" height="40" viewBox="0 0 40 40" fill="none" xmlns="http://www.w3.org/2000/svg">
<g id="Frame 181">
<path d="M0 20C0 8.95431 8.95431 0 20 0C31.0457 0 40 8.95431 40 20V40H20C8.95431 40 0 31.0457 0 20Z" fill="#FFD300"/>
<g id="Medical / health">
<path id="Vector" d="M22.0202 18.6243H21.0101V17.5661C21.0101 17.2855 20.9036 17.0163 20.7142 16.8179C20.5248 16.6194 20.2679 16.5079 20 16.5079C19.7321 16.5079 19.4751 16.6194 19.2857 16.8179C19.0963 17.0163 18.9899 17.2855 18.9899 17.5661V18.6243H17.9798C17.7119 18.6243 17.4549 18.7358 17.2655 18.9343C17.0761 19.1327 16.9697 19.4019 16.9697 19.6825C16.9697 19.9632 17.0761 20.2324 17.2655 20.4308C17.4549 20.6293 17.7119 20.7407 17.9798 20.7407H18.9899V21.7989C18.9899 22.0796 19.0963 22.3488 19.2857 22.5472C19.4751 22.7457 19.7321 22.8571 20 22.8571C20.2679 22.8571 20.5248 22.7457 20.7142 22.5472C20.9036 22.3488 21.0101 22.0796 21.0101 21.7989V20.7407H22.0202C22.2881 20.7407 22.545 20.6293 22.7344 20.4308C22.9238 20.2324 23.0303 19.9632 23.0303 19.6825C23.0303 19.4019 22.9238 19.1327 22.7344 18.9343C22.545 18.7358 22.2881 18.6243 22.0202 18.6243ZM28.2424 12.2751C27.1653 11.1584 25.7427 10.4818 24.2313 10.3673C22.7199 10.2528 21.2192 10.708 20 11.6508C18.7148 10.6494 17.1151 10.1953 15.5231 10.3799C13.9311 10.5646 12.4651 11.3744 11.4201 12.6461C10.3752 13.9179 9.82908 15.5572 9.89168 17.2339C9.95429 18.9106 10.621 20.5002 11.7575 21.6825L17.8181 28.0847C18.3863 28.6792 19.1565 29.0131 19.9596 29.0131C20.7626 29.0131 21.5328 28.6792 22.101 28.0847L28.1616 21.6825C28.7585 21.0716 29.2342 20.3431 29.5615 19.5389C29.8888 18.7347 30.0612 17.8706 30.0687 16.9964C30.0762 16.1222 29.9187 15.2551 29.6053 14.4449C29.2919 13.6346 28.8287 12.8972 28.2424 12.2751ZM26.8181 20.1693L20.7575 26.5185C20.6636 26.6177 20.5519 26.6964 20.4288 26.7502C20.3057 26.8039 20.1737 26.8315 20.0404 26.8315C19.907 26.8315 19.775 26.8039 19.6519 26.7502C19.5288 26.6964 19.4171 26.6177 19.3232 26.5185L13.2626 20.1693C12.4704 19.321 12.0268 18.1815 12.0268 16.9947C12.0268 15.808 12.4704 14.6684 13.2626 13.8201C14.0698 12.9852 15.1585 12.517 16.2929 12.517C17.4273 12.517 18.516 12.9852 19.3232 13.8201C19.4171 13.9193 19.5288 13.998 19.6519 14.0517C19.775 14.1055 19.907 14.1331 20.0404 14.1331C20.1737 14.1331 20.3057 14.1055 20.4288 14.0517C20.5519 13.998 20.6636 13.9193 20.7575 13.8201C21.5648 12.9852 22.6535 12.517 23.7878 12.517C24.9222 12.517 26.0109 12.9852 26.8181 13.8201C27.6164 14.6694 28.0638 15.8134 28.0638 17.0053C28.0638 18.1972 27.6164 19.3412 26.8181 20.1905V20.1693Z" fill="black"/>
</g>
</g>
</svg>
