<svg width="40" height="40" viewBox="0 0 40 40" fill="none" xmlns="http://www.w3.org/2000/svg">
<g id="Frame 182">
<path d="M0 20C0 8.95431 8.95431 0 20 0C31.0457 0 40 8.95431 40 20V40H20C8.95431 40 0 31.0457 0 20Z" fill="#FFD300"/>
<path id="Vector" d="M28.7451 13.07C27.5249 11.3041 25.8537 9.93524 23.9239 9.12116C22.2226 8.39528 20.3772 8.11866 18.5499 8.31563C16.7227 8.5126 14.9696 9.17712 13.4449 10.2508C11.9201 11.3244 10.6703 12.7743 9.80546 14.4729C8.94058 16.1715 8.48709 18.0669 8.48486 19.9923C8.48486 20.2156 8.48486 20.4389 8.48486 20.6505C8.5827 22.4887 9.09366 24.2767 9.97607 25.8686C11.4171 28.5198 13.7853 30.4796 16.58 31.3336C17.5957 31.6217 18.6448 31.7601 19.6969 31.7449C20.4045 31.7483 21.1107 31.6775 21.8048 31.5334C24.095 31.0687 26.19 29.8668 27.7977 28.0951C29.4055 26.3235 30.4461 24.0703 30.7745 21.6494C30.8587 21.1013 30.9037 20.5474 30.909 19.9923C30.9187 17.5007 30.1597 15.0725 28.7451 13.07ZM26.5027 13.975L25.303 17.3362L23.4866 17.8533L20.8181 15.8671V13.6929L23.61 11.5657C24.7428 12.1383 25.7448 12.9601 26.5475 13.975H26.5027ZM21.9394 19.6045L21.0648 22.3428H18.3179L17.4545 19.6045L19.6969 17.9239L21.9394 19.6045ZM19.6969 10.5902C20.1136 10.5951 20.5295 10.6305 20.9415 10.696L19.6969 11.6362L18.4524 10.696C18.8644 10.6305 19.2803 10.5951 19.6969 10.5902ZM11.7139 15.7261L12.1624 17.2775L10.8955 18.2059C11.0546 17.3428 11.3302 16.5078 11.7139 15.7261ZM13.25 26.5032L14.7973 26.562L15.2121 28.1251C14.4916 27.6792 13.8317 27.1337 13.25 26.5032ZM15.2121 24.2232L11.6803 24.094C11.2347 23.1766 10.9391 22.1874 10.8058 21.1676L13.5976 19.1226L15.2121 19.8513L16.21 23.095L15.2121 24.2232ZM16.1763 17.7241L14.4273 16.9014L13.407 13.3756C14.0947 12.6394 14.8941 12.0278 15.7727 11.5657L18.5757 13.6929V15.8671L16.1763 17.7241ZM20.8181 29.3121C19.8345 29.4344 18.8383 29.3868 17.8694 29.1711L16.9388 25.7393L17.8694 24.6933H21.3115L22.0627 25.8686L20.8181 29.3121ZM23.5203 28.4894L24.036 27.0439L25.5609 27.1261C24.9336 27.6799 24.2354 28.1388 23.4866 28.4894H23.5203ZM27.3996 24.8226L23.9127 24.6933L23.1166 23.4006L24.1145 20.1568L25.8075 19.675L28.4536 22.0255C28.2403 23.0142 27.8728 23.9593 27.366 24.8226H27.3996ZM27.4557 17.9709L27.9939 16.4665C28.3096 17.2654 28.5099 18.1091 28.5881 18.9698L27.4557 17.9709Z" fill="black"/>
</g>
</svg>
